<mxfile host="app.diagrams.net" modified="2024-03-22T08:19:24.009Z" agent="Mozilla/5.0 (Windows NT 10.0; Win64; x64) AppleWebKit/537.36 (KHTML, like Gecko) Chrome/123.0.0.0 Safari/537.36" version="24.0.7" etag="P5IMzGxfYGrn7R79hqhq" type="github">
  <diagram name="Trang-1" id="0P2YtkZrZJZ7ArzmeA8a">
    <mxGraphModel>
      <root>
        <mxCell id="0" />
        <mxCell id="1" parent="0" />
      </root>
    </mxGraphModel>
  </diagram>
</mxfile>
